<svg width="293" height="54" viewBox="0 0 293 54" fill="none" xmlns="http://www.w3.org/2000/svg">
<path d="M113.577 36.6108L113.579 36.6129C114.785 37.8748 116.485 38.4902 118.64 38.4902C118.945 38.4902 119.314 38.4627 119.743 38.4092C120.178 38.3817 120.576 38.3269 120.936 38.2438L121.13 38.1991V38.0002V34.7202V34.4409L120.852 34.4717C120.614 34.4982 120.349 34.5247 120.057 34.5512L120.055 34.5514C119.794 34.5776 119.576 34.5902 119.4 34.5902C118.547 34.5902 117.888 34.4479 117.405 34.1834C116.916 33.8892 116.567 33.5026 116.35 33.0224C116.153 32.5261 116.05 31.9339 116.05 31.2402V20.2502H120.64H120.89V20.0002V16.4402V16.1902H120.64H116.05V11.4802V11.2302H115.8H112.08H111.83V11.4802V13.2402C111.83 14.1485 111.567 14.8558 111.059 15.3876C110.555 15.9158 109.865 16.1902 108.96 16.1902H108.16H107.91V16.4402V20.0002V20.2502H108.16H111.83V31.3602C111.83 33.5887 112.401 35.3508 113.577 36.6108L113.577 36.6108ZM125.489 38.0002V38.2502H125.739H129.459H129.709V38.0002V25.1602C129.709 23.4716 130.163 22.2101 131.036 21.337L131.039 21.3345C131.918 20.4296 133.077 19.9702 134.539 19.9702H136.419H136.669V19.7202V16.2002V15.9502H136.419H135.099C133.573 15.9502 132.261 16.2636 131.174 16.9037C130.573 17.2431 130.058 17.6839 129.629 18.2234V16.4402V16.1902H129.379H125.739H125.489V16.4402V38.0002ZM139.474 38.0002V38.2502H139.724H143.444H143.694V38.0002V16.4402V16.1902H143.444H139.724H139.474V16.4402V38.0002ZM139.474 13.0002V13.2502H139.724H143.444H143.694V13.0002V8.2002V7.9502H143.444H139.724H139.474V8.2002V13.0002ZM148.966 46.0002V46.2502H149.216H152.936H153.186V46.0002V35.698C153.832 36.4363 154.602 37.0504 155.496 37.5395L155.498 37.5404C156.976 38.3345 158.604 38.7302 160.376 38.7302C162.471 38.7302 164.344 38.2264 165.986 37.2135C167.651 36.2035 168.962 34.8243 169.915 33.0802C170.87 31.3337 171.346 29.3852 171.346 27.2402C171.346 25.0433 170.871 23.0807 169.915 21.3593C168.961 19.6156 167.651 18.2367 165.986 17.2269C164.344 16.2144 162.485 15.7102 160.416 15.7102C158.593 15.7102 156.964 16.105 155.536 16.9009C154.596 17.4073 153.785 18.0344 153.106 18.7819V16.4402V16.1902H152.856H149.216H148.966V16.4402V46.0002ZM165.994 31.0444L165.993 31.0463C165.427 32.1538 164.631 33.0261 163.603 33.6682C162.58 34.308 161.413 34.6302 160.096 34.6302C158.779 34.6302 157.599 34.3082 156.547 33.6674C155.519 33.0247 154.696 32.151 154.076 31.0414C153.484 29.9076 153.186 28.6422 153.186 27.2402C153.186 25.8097 153.485 24.5447 154.076 23.4389C154.696 22.3018 155.52 21.4152 156.547 20.773C157.599 20.1322 158.779 19.8102 160.096 19.8102C161.411 19.8102 162.576 20.1447 163.6 20.8098L163.6 20.8098L163.603 20.8122C164.631 21.4543 165.427 22.3266 165.993 23.4341L165.993 23.4341L165.997 23.4403C166.587 24.5177 166.886 25.7817 166.886 27.2402C166.886 28.6435 166.587 29.9099 165.994 31.0444Z" fill="#63316D" stroke="#FFFCE4" stroke-width="0.5"/>
<mask id="path-2-outside-1_7133_972" maskUnits="userSpaceOnUse" x="175.88" y="6.72021" width="117" height="33" fill="black">
<rect fill="white" x="175.88" y="6.72021" width="117" height="33"/>
<path d="M176.88 38.0002V7.72021H180.6V38.0002H176.88Z"/>
<path d="M192.692 38.4802C191.279 38.4802 190.026 38.2269 188.932 37.7202C187.866 37.1869 187.026 36.4669 186.412 35.5602C185.799 34.6269 185.492 33.5602 185.492 32.3602C185.492 31.2135 185.732 30.1869 186.212 29.2802C186.719 28.3469 187.492 27.5602 188.532 26.9202C189.599 26.2802 190.932 25.8269 192.532 25.5602L200.532 24.2402V27.3602L193.372 28.5602C191.986 28.8002 190.972 29.2402 190.332 29.8802C189.719 30.5202 189.412 31.3069 189.412 32.2402C189.412 33.1202 189.759 33.8535 190.452 34.4402C191.172 35.0269 192.066 35.3202 193.132 35.3202C194.492 35.3202 195.666 35.0402 196.652 34.4802C197.666 33.8935 198.452 33.1069 199.012 32.1202C199.599 31.1335 199.892 30.0402 199.892 28.8402V23.3602C199.892 22.1869 199.452 21.2402 198.572 20.5202C197.719 19.7735 196.586 19.4002 195.172 19.4002C193.946 19.4002 192.852 19.7202 191.892 20.3602C190.959 20.9735 190.266 21.8002 189.812 22.8402L186.572 21.1602C186.972 20.1735 187.612 19.2935 188.492 18.5202C189.372 17.7202 190.399 17.0935 191.572 16.6402C192.746 16.1869 193.972 15.9602 195.252 15.9602C196.906 15.9602 198.359 16.2802 199.612 16.9202C200.866 17.5335 201.839 18.4002 202.532 19.5202C203.252 20.6135 203.612 21.8935 203.612 23.3602V38.0002H199.972V33.9202L200.652 34.1602C200.199 35.0135 199.586 35.7602 198.812 36.4002C198.039 37.0402 197.132 37.5469 196.092 37.9202C195.052 38.2935 193.919 38.4802 192.692 38.4802Z"/>
<path d="M209.38 38.0002V16.4402H213.02V20.6402L212.42 20.2802C212.953 18.9202 213.807 17.8669 214.98 17.1202C216.18 16.3469 217.58 15.9602 219.18 15.9602C220.727 15.9602 222.1 16.3069 223.3 17.0002C224.527 17.6935 225.487 18.6535 226.18 19.8802C226.9 21.1069 227.26 22.4935 227.26 24.0402V38.0002H223.5V25.2402C223.5 24.0402 223.287 23.0269 222.86 22.2002C222.433 21.3735 221.82 20.7335 221.02 20.2802C220.247 19.8002 219.353 19.5602 218.34 19.5602C217.327 19.5602 216.42 19.8002 215.62 20.2802C214.847 20.7335 214.233 21.3869 213.78 22.2402C213.327 23.0669 213.1 24.0669 213.1 25.2402V38.0002H209.38Z"/>
<path d="M232.583 38.0002V16.4402H236.223V20.6402L235.623 20.2802C236.156 18.9202 237.01 17.8669 238.183 17.1202C239.383 16.3469 240.783 15.9602 242.383 15.9602C243.93 15.9602 245.303 16.3069 246.503 17.0002C247.73 17.6935 248.69 18.6535 249.383 19.8802C250.103 21.1069 250.463 22.4935 250.463 24.0402V38.0002H246.703V25.2402C246.703 24.0402 246.49 23.0269 246.063 22.2002C245.636 21.3735 245.023 20.7335 244.223 20.2802C243.45 19.8002 242.556 19.5602 241.543 19.5602C240.53 19.5602 239.623 19.8002 238.823 20.2802C238.05 20.7335 237.436 21.3869 236.983 22.2402C236.53 23.0669 236.303 24.0669 236.303 25.2402V38.0002H232.583Z"/>
<path d="M265.706 38.4802C263.626 38.4802 261.773 37.9869 260.146 37.0002C258.52 36.0135 257.24 34.6669 256.306 32.9602C255.373 31.2269 254.906 29.2935 254.906 27.1602C254.906 25.0002 255.36 23.0802 256.266 21.4002C257.2 19.7202 258.453 18.4002 260.026 17.4402C261.626 16.4535 263.413 15.9602 265.386 15.9602C266.986 15.9602 268.4 16.2535 269.626 16.8402C270.88 17.4002 271.933 18.1735 272.786 19.1602C273.666 20.1202 274.333 21.2269 274.786 22.4802C275.266 23.7069 275.506 24.9869 275.506 26.3202C275.506 26.6135 275.48 26.9469 275.426 27.3202C275.4 27.6669 275.36 28.0002 275.306 28.3202H257.626V25.1202H273.146L271.386 26.5602C271.626 25.1735 271.493 23.9335 270.986 22.8402C270.48 21.7469 269.733 20.8802 268.746 20.2402C267.76 19.6002 266.64 19.2802 265.386 19.2802C264.133 19.2802 262.986 19.6002 261.946 20.2402C260.906 20.8802 260.093 21.8002 259.506 23.0002C258.946 24.1735 258.72 25.5735 258.826 27.2002C258.72 28.7735 258.96 30.1602 259.546 31.3602C260.16 32.5335 261.013 33.4535 262.106 34.1202C263.226 34.7602 264.44 35.0802 265.746 35.0802C267.186 35.0802 268.4 34.7469 269.386 34.0802C270.373 33.4135 271.173 32.5602 271.786 31.5202L274.906 33.1202C274.48 34.1069 273.813 35.0135 272.906 35.8402C272.026 36.6402 270.973 37.2802 269.746 37.7602C268.546 38.2402 267.2 38.4802 265.706 38.4802Z"/>
<path d="M280.357 38.0002V16.4402H283.997V20.4002L283.597 19.8402C284.103 18.6135 284.877 17.7069 285.917 17.1202C286.957 16.5069 288.223 16.2002 289.717 16.2002H291.037V19.7202H289.157C287.637 19.7202 286.41 20.2002 285.477 21.1602C284.543 22.0935 284.077 23.4269 284.077 25.1602V38.0002H280.357Z"/>
</mask>
<path d="M176.88 38.0002V7.72021H180.6V38.0002H176.88Z" fill="#FFFCE4"/>
<path d="M192.692 38.4802C191.279 38.4802 190.026 38.2269 188.932 37.7202C187.866 37.1869 187.026 36.4669 186.412 35.5602C185.799 34.6269 185.492 33.5602 185.492 32.3602C185.492 31.2135 185.732 30.1869 186.212 29.2802C186.719 28.3469 187.492 27.5602 188.532 26.9202C189.599 26.2802 190.932 25.8269 192.532 25.5602L200.532 24.2402V27.3602L193.372 28.5602C191.986 28.8002 190.972 29.2402 190.332 29.8802C189.719 30.5202 189.412 31.3069 189.412 32.2402C189.412 33.1202 189.759 33.8535 190.452 34.4402C191.172 35.0269 192.066 35.3202 193.132 35.3202C194.492 35.3202 195.666 35.0402 196.652 34.4802C197.666 33.8935 198.452 33.1069 199.012 32.1202C199.599 31.1335 199.892 30.0402 199.892 28.8402V23.3602C199.892 22.1869 199.452 21.2402 198.572 20.5202C197.719 19.7735 196.586 19.4002 195.172 19.4002C193.946 19.4002 192.852 19.7202 191.892 20.3602C190.959 20.9735 190.266 21.8002 189.812 22.8402L186.572 21.1602C186.972 20.1735 187.612 19.2935 188.492 18.5202C189.372 17.7202 190.399 17.0935 191.572 16.6402C192.746 16.1869 193.972 15.9602 195.252 15.9602C196.906 15.9602 198.359 16.2802 199.612 16.9202C200.866 17.5335 201.839 18.4002 202.532 19.5202C203.252 20.6135 203.612 21.8935 203.612 23.3602V38.0002H199.972V33.9202L200.652 34.1602C200.199 35.0135 199.586 35.7602 198.812 36.4002C198.039 37.0402 197.132 37.5469 196.092 37.9202C195.052 38.2935 193.919 38.4802 192.692 38.4802Z" fill="#FFFCE4"/>
<path d="M209.38 38.0002V16.4402H213.02V20.6402L212.42 20.2802C212.953 18.9202 213.807 17.8669 214.98 17.1202C216.18 16.3469 217.58 15.9602 219.18 15.9602C220.727 15.9602 222.1 16.3069 223.3 17.0002C224.527 17.6935 225.487 18.6535 226.18 19.8802C226.9 21.1069 227.26 22.4935 227.26 24.0402V38.0002H223.5V25.2402C223.5 24.0402 223.287 23.0269 222.86 22.2002C222.433 21.3735 221.82 20.7335 221.02 20.2802C220.247 19.8002 219.353 19.5602 218.34 19.5602C217.327 19.5602 216.42 19.8002 215.62 20.2802C214.847 20.7335 214.233 21.3869 213.78 22.2402C213.327 23.0669 213.1 24.0669 213.1 25.2402V38.0002H209.38Z" fill="#FFFCE4"/>
<path d="M232.583 38.0002V16.4402H236.223V20.6402L235.623 20.2802C236.156 18.9202 237.01 17.8669 238.183 17.1202C239.383 16.3469 240.783 15.9602 242.383 15.9602C243.93 15.9602 245.303 16.3069 246.503 17.0002C247.73 17.6935 248.69 18.6535 249.383 19.8802C250.103 21.1069 250.463 22.4935 250.463 24.0402V38.0002H246.703V25.2402C246.703 24.0402 246.49 23.0269 246.063 22.2002C245.636 21.3735 245.023 20.7335 244.223 20.2802C243.45 19.8002 242.556 19.5602 241.543 19.5602C240.53 19.5602 239.623 19.8002 238.823 20.2802C238.05 20.7335 237.436 21.3869 236.983 22.2402C236.53 23.0669 236.303 24.0669 236.303 25.2402V38.0002H232.583Z" fill="#FFFCE4"/>
<path d="M265.706 38.4802C263.626 38.4802 261.773 37.9869 260.146 37.0002C258.52 36.0135 257.24 34.6669 256.306 32.9602C255.373 31.2269 254.906 29.2935 254.906 27.1602C254.906 25.0002 255.36 23.0802 256.266 21.4002C257.2 19.7202 258.453 18.4002 260.026 17.4402C261.626 16.4535 263.413 15.9602 265.386 15.9602C266.986 15.9602 268.4 16.2535 269.626 16.8402C270.88 17.4002 271.933 18.1735 272.786 19.1602C273.666 20.1202 274.333 21.2269 274.786 22.4802C275.266 23.7069 275.506 24.9869 275.506 26.3202C275.506 26.6135 275.48 26.9469 275.426 27.3202C275.4 27.6669 275.36 28.0002 275.306 28.3202H257.626V25.1202H273.146L271.386 26.5602C271.626 25.1735 271.493 23.9335 270.986 22.8402C270.48 21.7469 269.733 20.8802 268.746 20.2402C267.76 19.6002 266.64 19.2802 265.386 19.2802C264.133 19.2802 262.986 19.6002 261.946 20.2402C260.906 20.8802 260.093 21.8002 259.506 23.0002C258.946 24.1735 258.72 25.5735 258.826 27.2002C258.72 28.7735 258.96 30.1602 259.546 31.3602C260.16 32.5335 261.013 33.4535 262.106 34.1202C263.226 34.7602 264.44 35.0802 265.746 35.0802C267.186 35.0802 268.4 34.7469 269.386 34.0802C270.373 33.4135 271.173 32.5602 271.786 31.5202L274.906 33.1202C274.48 34.1069 273.813 35.0135 272.906 35.8402C272.026 36.6402 270.973 37.2802 269.746 37.7602C268.546 38.2402 267.2 38.4802 265.706 38.4802Z" fill="#FFFCE4"/>
<path d="M280.357 38.0002V16.4402H283.997V20.4002L283.597 19.8402C284.103 18.6135 284.877 17.7069 285.917 17.1202C286.957 16.5069 288.223 16.2002 289.717 16.2002H291.037V19.7202H289.157C287.637 19.7202 286.41 20.2002 285.477 21.1602C284.543 22.0935 284.077 23.4269 284.077 25.1602V38.0002H280.357Z" fill="#FFFCE4"/>
<path d="M176.88 38.0002V7.72021H180.6V38.0002H176.88Z" stroke="#63316D" stroke-width="2" mask="url(#path-2-outside-1_7133_972)"/>
<path d="M192.692 38.4802C191.279 38.4802 190.026 38.2269 188.932 37.7202C187.866 37.1869 187.026 36.4669 186.412 35.5602C185.799 34.6269 185.492 33.5602 185.492 32.3602C185.492 31.2135 185.732 30.1869 186.212 29.2802C186.719 28.3469 187.492 27.5602 188.532 26.9202C189.599 26.2802 190.932 25.8269 192.532 25.5602L200.532 24.2402V27.3602L193.372 28.5602C191.986 28.8002 190.972 29.2402 190.332 29.8802C189.719 30.5202 189.412 31.3069 189.412 32.2402C189.412 33.1202 189.759 33.8535 190.452 34.4402C191.172 35.0269 192.066 35.3202 193.132 35.3202C194.492 35.3202 195.666 35.0402 196.652 34.4802C197.666 33.8935 198.452 33.1069 199.012 32.1202C199.599 31.1335 199.892 30.0402 199.892 28.8402V23.3602C199.892 22.1869 199.452 21.2402 198.572 20.5202C197.719 19.7735 196.586 19.4002 195.172 19.4002C193.946 19.4002 192.852 19.7202 191.892 20.3602C190.959 20.9735 190.266 21.8002 189.812 22.8402L186.572 21.1602C186.972 20.1735 187.612 19.2935 188.492 18.5202C189.372 17.7202 190.399 17.0935 191.572 16.6402C192.746 16.1869 193.972 15.9602 195.252 15.9602C196.906 15.9602 198.359 16.2802 199.612 16.9202C200.866 17.5335 201.839 18.4002 202.532 19.5202C203.252 20.6135 203.612 21.8935 203.612 23.3602V38.0002H199.972V33.9202L200.652 34.1602C200.199 35.0135 199.586 35.7602 198.812 36.4002C198.039 37.0402 197.132 37.5469 196.092 37.9202C195.052 38.2935 193.919 38.4802 192.692 38.4802Z" stroke="#63316D" stroke-width="2" mask="url(#path-2-outside-1_7133_972)"/>
<path d="M209.38 38.0002V16.4402H213.02V20.6402L212.42 20.2802C212.953 18.9202 213.807 17.8669 214.98 17.1202C216.18 16.3469 217.58 15.9602 219.18 15.9602C220.727 15.9602 222.1 16.3069 223.3 17.0002C224.527 17.6935 225.487 18.6535 226.18 19.8802C226.9 21.1069 227.26 22.4935 227.26 24.0402V38.0002H223.5V25.2402C223.5 24.0402 223.287 23.0269 222.86 22.2002C222.433 21.3735 221.82 20.7335 221.02 20.2802C220.247 19.8002 219.353 19.5602 218.34 19.5602C217.327 19.5602 216.42 19.8002 215.62 20.2802C214.847 20.7335 214.233 21.3869 213.78 22.2402C213.327 23.0669 213.1 24.0669 213.1 25.2402V38.0002H209.38Z" stroke="#63316D" stroke-width="2" mask="url(#path-2-outside-1_7133_972)"/>
<path d="M232.583 38.0002V16.4402H236.223V20.6402L235.623 20.2802C236.156 18.9202 237.01 17.8669 238.183 17.1202C239.383 16.3469 240.783 15.9602 242.383 15.9602C243.93 15.9602 245.303 16.3069 246.503 17.0002C247.73 17.6935 248.69 18.6535 249.383 19.8802C250.103 21.1069 250.463 22.4935 250.463 24.0402V38.0002H246.703V25.2402C246.703 24.0402 246.49 23.0269 246.063 22.2002C245.636 21.3735 245.023 20.7335 244.223 20.2802C243.45 19.8002 242.556 19.5602 241.543 19.5602C240.53 19.5602 239.623 19.8002 238.823 20.2802C238.05 20.7335 237.436 21.3869 236.983 22.2402C236.53 23.0669 236.303 24.0669 236.303 25.2402V38.0002H232.583Z" stroke="#63316D" stroke-width="2" mask="url(#path-2-outside-1_7133_972)"/>
<path d="M265.706 38.4802C263.626 38.4802 261.773 37.9869 260.146 37.0002C258.52 36.0135 257.24 34.6669 256.306 32.9602C255.373 31.2269 254.906 29.2935 254.906 27.1602C254.906 25.0002 255.36 23.0802 256.266 21.4002C257.2 19.7202 258.453 18.4002 260.026 17.4402C261.626 16.4535 263.413 15.9602 265.386 15.9602C266.986 15.9602 268.4 16.2535 269.626 16.8402C270.88 17.4002 271.933 18.1735 272.786 19.1602C273.666 20.1202 274.333 21.2269 274.786 22.4802C275.266 23.7069 275.506 24.9869 275.506 26.3202C275.506 26.6135 275.48 26.9469 275.426 27.3202C275.4 27.6669 275.36 28.0002 275.306 28.3202H257.626V25.1202H273.146L271.386 26.5602C271.626 25.1735 271.493 23.9335 270.986 22.8402C270.48 21.7469 269.733 20.8802 268.746 20.2402C267.76 19.6002 266.64 19.2802 265.386 19.2802C264.133 19.2802 262.986 19.6002 261.946 20.2402C260.906 20.8802 260.093 21.8002 259.506 23.0002C258.946 24.1735 258.72 25.5735 258.826 27.2002C258.72 28.7735 258.96 30.1602 259.546 31.3602C260.16 32.5335 261.013 33.4535 262.106 34.1202C263.226 34.7602 264.44 35.0802 265.746 35.0802C267.186 35.0802 268.4 34.7469 269.386 34.0802C270.373 33.4135 271.173 32.5602 271.786 31.5202L274.906 33.1202C274.48 34.1069 273.813 35.0135 272.906 35.8402C272.026 36.6402 270.973 37.2802 269.746 37.7602C268.546 38.2402 267.2 38.4802 265.706 38.4802Z" stroke="#63316D" stroke-width="2" mask="url(#path-2-outside-1_7133_972)"/>
<path d="M280.357 38.0002V16.4402H283.997V20.4002L283.597 19.8402C284.103 18.6135 284.877 17.7069 285.917 17.1202C286.957 16.5069 288.223 16.2002 289.717 16.2002H291.037V19.7202H289.157C287.637 19.7202 286.41 20.2002 285.477 21.1602C284.543 22.0935 284.077 23.4269 284.077 25.1602V38.0002H280.357Z" stroke="#63316D" stroke-width="2" mask="url(#path-2-outside-1_7133_972)"/>
<mask id="path-3-inside-2_7133_972" fill="white">
<path d="M5.3918 0.235154C2.92266 0.923826 0.907031 2.95625 0.251953 5.44219C-0.0839844 6.71875 -0.0839844 47.0312 0.251953 48.3078C0.940625 50.9113 3.12422 53.0109 5.69414 53.5652C6.33242 53.6996 13.2695 53.75 29.8984 53.75C52.2719 53.75 53.2293 53.7332 53.4813 53.4477C53.666 53.2461 53.7668 52.843 53.7668 52.3391C53.7668 50.9617 54.4555 50.2227 55.7152 50.2227C56.152 50.2227 56.4543 50.357 56.807 50.7098C57.227 51.1297 57.2941 51.3312 57.2941 52.1039C57.2941 52.6414 57.3949 53.1453 57.5629 53.3805L57.8148 53.75H68.632C76.0059 53.75 79.7348 53.6828 80.3395 53.5652C82.9766 52.9941 85.2777 50.7098 85.832 48.0727C86.1008 46.8129 86.1008 6.92031 85.832 5.67734C85.2777 3.10742 83.1781 0.923826 80.5746 0.235154C79.8859 0.0503882 77.5008 -2.38419e-06 68.7664 -2.38419e-06H57.8148L57.5629 0.369529C57.3949 0.604685 57.2941 1.10859 57.2941 1.64609C57.2941 2.41875 57.227 2.62031 56.807 3.04023C56.4543 3.39297 56.152 3.52734 55.7152 3.52734C54.4387 3.52734 53.7668 2.78828 53.7668 1.39414C53.7668 -0.134377 56.2359 -2.38419e-06 29.6465 0.0167945C11.3715 0.0335914 5.97969 0.083982 5.3918 0.235154ZM56.8406 9.23828C57.2605 9.70859 57.2941 9.84297 57.2941 11.3043C57.2941 12.5137 57.227 12.9336 56.9918 13.2023C56.2527 14.1262 55.1609 14.1934 54.3379 13.3703C53.7836 12.816 53.7668 12.7656 53.7668 11.4555C53.7668 9.80937 53.9348 9.33906 54.6402 8.90234C55.3961 8.43203 56.2191 8.54961 56.8406 9.23828ZM77.6856 9.1375C78.4078 9.43984 78.7941 9.99414 78.7941 10.75C78.7941 11.5059 78.4078 12.0602 77.6856 12.3625C76.8625 12.7152 66.4484 12.6984 65.6086 12.3625C65.0207 12.1105 64.5168 11.3715 64.5168 10.75C64.5168 10.1453 65.0207 9.38945 65.575 9.15429C66.3645 8.80156 76.8793 8.80156 77.6856 9.1375ZM42.7145 11.0355C43.1176 11.3883 43.1008 12.3625 42.6809 14.0086C42.0594 16.4273 41.4043 17.3848 38.0617 20.8113L35.0383 23.8852L37.8434 29.4617C41.0012 35.727 41.0684 35.9117 40.1109 36.8691C39.7918 37.1883 39.3551 37.4906 39.1199 37.541C38.1625 37.7762 37.6922 37.3395 34.0305 32.7875L30.5031 28.4035L26.3711 32.5187L22.2391 36.634L22.4742 38.0953C22.5918 38.9016 22.6926 39.9262 22.6926 40.3797C22.6926 41.1523 22.6422 41.2531 21.8023 42.1098C20.8953 43.0168 20.3914 43.2016 19.9715 42.7816C19.8539 42.6473 19.1484 41.5555 18.4262 40.3461C17.6871 39.1199 16.7633 37.8098 16.3602 37.4066C15.957 37.0035 14.6469 36.0797 13.4207 35.3406C12.2113 34.6184 11.1195 33.9129 10.9852 33.7953C10.5652 33.3754 10.75 32.8715 11.657 31.9645C12.5137 31.1246 12.6145 31.0742 13.3871 31.0742C13.8406 31.0742 14.8652 31.175 15.6715 31.2926L17.1328 31.5277L21.248 27.3957L25.3801 23.2637L20.9793 19.7363C16.4273 16.0746 15.9906 15.6043 16.2258 14.6469C16.2762 14.4117 16.5785 13.975 16.8977 13.6559C17.8551 12.6984 18.0398 12.7656 24.3051 15.9234L29.8816 18.7285L32.9555 15.7051C35.4582 13.2527 36.2813 12.5641 37.2555 12.0434C39.3887 10.9348 42.0594 10.4309 42.7145 11.0355ZM77.9543 16.4105C78.9285 16.9816 79.0965 18.359 78.307 19.1652L77.8199 19.6523H71.8402C67.809 19.6523 65.743 19.5852 65.4574 19.4676C64.1809 18.8797 64.332 16.7465 65.6926 16.2426C65.827 16.1922 68.548 16.1418 71.7059 16.1418C76.8121 16.125 77.5344 16.1586 77.9543 16.4105ZM56.723 19.5516C57.2773 20.1059 57.2941 20.1562 57.2941 21.5672C57.2941 23.1797 57.0926 23.7676 56.4375 24.1203C55.6984 24.4898 55.0098 24.4059 54.4051 23.8684L53.8508 23.3812V21.7016C53.8508 20.257 53.9012 19.9715 54.1867 19.6523C54.9594 18.7957 55.9336 18.7621 56.723 19.5516ZM77.6856 25.2625C78.4078 25.5648 78.7941 26.1191 78.7941 26.875C78.7941 27.6309 78.4078 28.1852 77.6856 28.4875C76.8625 28.8402 66.4484 28.8234 65.6086 28.4875C65.0207 28.2355 64.5168 27.4965 64.5168 26.875C64.5168 26.2703 65.0207 25.5145 65.575 25.2793C66.3645 24.9266 76.8793 24.9266 77.6856 25.2625ZM56.4375 29.6297C57.0926 29.9824 57.2941 30.5703 57.2941 32.166C57.2941 33.493 57.2605 33.6273 56.807 34.1312C56.3871 34.6016 56.2023 34.6855 55.5473 34.6855C54.9426 34.6855 54.6906 34.5848 54.3211 34.2152C53.8676 33.7785 53.8508 33.6945 53.8508 32.0652V30.3687L54.4051 29.8816C55.0098 29.3441 55.6984 29.2602 56.4375 29.6297ZM77.9543 32.5355C78.9285 33.1066 79.0965 34.484 78.307 35.2902L77.8199 35.7773H71.8402C67.809 35.7773 65.743 35.7102 65.4574 35.5926C64.1809 35.0047 64.332 32.8715 65.6926 32.3676C65.827 32.3172 68.548 32.2668 71.7059 32.2668C76.8121 32.25 77.5344 32.2836 77.9543 32.5355ZM56.3367 39.9934C57.1262 40.3965 57.2941 40.7996 57.2941 42.4457C57.2941 43.907 57.2605 44.0414 56.8406 44.5117C56.2191 45.2004 55.3961 45.318 54.6402 44.8477C53.9348 44.4109 53.7668 43.9406 53.7668 42.2945C53.7668 40.9844 53.7836 40.934 54.3379 40.3797C54.9426 39.775 55.6313 39.6406 56.3367 39.9934ZM77.6856 41.3875C78.4078 41.6898 78.7941 42.2441 78.7941 43C78.7941 43.7559 78.4078 44.3102 77.6856 44.6125C76.8625 44.9652 66.4484 44.9484 65.6086 44.6125C65.0207 44.3605 64.5168 43.6215 64.5168 43C64.5168 42.3953 65.0207 41.6395 65.575 41.4043C66.3645 41.0516 76.8793 41.0516 77.6856 41.3875Z"/>
</mask>
<path d="M5.3918 0.235154C2.92266 0.923826 0.907031 2.95625 0.251953 5.44219C-0.0839844 6.71875 -0.0839844 47.0312 0.251953 48.3078C0.940625 50.9113 3.12422 53.0109 5.69414 53.5652C6.33242 53.6996 13.2695 53.75 29.8984 53.75C52.2719 53.75 53.2293 53.7332 53.4813 53.4477C53.666 53.2461 53.7668 52.843 53.7668 52.3391C53.7668 50.9617 54.4555 50.2227 55.7152 50.2227C56.152 50.2227 56.4543 50.357 56.807 50.7098C57.227 51.1297 57.2941 51.3312 57.2941 52.1039C57.2941 52.6414 57.3949 53.1453 57.5629 53.3805L57.8148 53.75H68.632C76.0059 53.75 79.7348 53.6828 80.3395 53.5652C82.9766 52.9941 85.2777 50.7098 85.832 48.0727C86.1008 46.8129 86.1008 6.92031 85.832 5.67734C85.2777 3.10742 83.1781 0.923826 80.5746 0.235154C79.8859 0.0503882 77.5008 -2.38419e-06 68.7664 -2.38419e-06H57.8148L57.5629 0.369529C57.3949 0.604685 57.2941 1.10859 57.2941 1.64609C57.2941 2.41875 57.227 2.62031 56.807 3.04023C56.4543 3.39297 56.152 3.52734 55.7152 3.52734C54.4387 3.52734 53.7668 2.78828 53.7668 1.39414C53.7668 -0.134377 56.2359 -2.38419e-06 29.6465 0.0167945C11.3715 0.0335914 5.97969 0.083982 5.3918 0.235154ZM56.8406 9.23828C57.2605 9.70859 57.2941 9.84297 57.2941 11.3043C57.2941 12.5137 57.227 12.9336 56.9918 13.2023C56.2527 14.1262 55.1609 14.1934 54.3379 13.3703C53.7836 12.816 53.7668 12.7656 53.7668 11.4555C53.7668 9.80937 53.9348 9.33906 54.6402 8.90234C55.3961 8.43203 56.2191 8.54961 56.8406 9.23828ZM77.6856 9.1375C78.4078 9.43984 78.7941 9.99414 78.7941 10.75C78.7941 11.5059 78.4078 12.0602 77.6856 12.3625C76.8625 12.7152 66.4484 12.6984 65.6086 12.3625C65.0207 12.1105 64.5168 11.3715 64.5168 10.75C64.5168 10.1453 65.0207 9.38945 65.575 9.15429C66.3645 8.80156 76.8793 8.80156 77.6856 9.1375ZM42.7145 11.0355C43.1176 11.3883 43.1008 12.3625 42.6809 14.0086C42.0594 16.4273 41.4043 17.3848 38.0617 20.8113L35.0383 23.8852L37.8434 29.4617C41.0012 35.727 41.0684 35.9117 40.1109 36.8691C39.7918 37.1883 39.3551 37.4906 39.1199 37.541C38.1625 37.7762 37.6922 37.3395 34.0305 32.7875L30.5031 28.4035L26.3711 32.5187L22.2391 36.634L22.4742 38.0953C22.5918 38.9016 22.6926 39.9262 22.6926 40.3797C22.6926 41.1523 22.6422 41.2531 21.8023 42.1098C20.8953 43.0168 20.3914 43.2016 19.9715 42.7816C19.8539 42.6473 19.1484 41.5555 18.4262 40.3461C17.6871 39.1199 16.7633 37.8098 16.3602 37.4066C15.957 37.0035 14.6469 36.0797 13.4207 35.3406C12.2113 34.6184 11.1195 33.9129 10.9852 33.7953C10.5652 33.3754 10.75 32.8715 11.657 31.9645C12.5137 31.1246 12.6145 31.0742 13.3871 31.0742C13.8406 31.0742 14.8652 31.175 15.6715 31.2926L17.1328 31.5277L21.248 27.3957L25.3801 23.2637L20.9793 19.7363C16.4273 16.0746 15.9906 15.6043 16.2258 14.6469C16.2762 14.4117 16.5785 13.975 16.8977 13.6559C17.8551 12.6984 18.0398 12.7656 24.3051 15.9234L29.8816 18.7285L32.9555 15.7051C35.4582 13.2527 36.2813 12.5641 37.2555 12.0434C39.3887 10.9348 42.0594 10.4309 42.7145 11.0355ZM77.9543 16.4105C78.9285 16.9816 79.0965 18.359 78.307 19.1652L77.8199 19.6523H71.8402C67.809 19.6523 65.743 19.5852 65.4574 19.4676C64.1809 18.8797 64.332 16.7465 65.6926 16.2426C65.827 16.1922 68.548 16.1418 71.7059 16.1418C76.8121 16.125 77.5344 16.1586 77.9543 16.4105ZM56.723 19.5516C57.2773 20.1059 57.2941 20.1562 57.2941 21.5672C57.2941 23.1797 57.0926 23.7676 56.4375 24.1203C55.6984 24.4898 55.0098 24.4059 54.4051 23.8684L53.8508 23.3812V21.7016C53.8508 20.257 53.9012 19.9715 54.1867 19.6523C54.9594 18.7957 55.9336 18.7621 56.723 19.5516ZM77.6856 25.2625C78.4078 25.5648 78.7941 26.1191 78.7941 26.875C78.7941 27.6309 78.4078 28.1852 77.6856 28.4875C76.8625 28.8402 66.4484 28.8234 65.6086 28.4875C65.0207 28.2355 64.5168 27.4965 64.5168 26.875C64.5168 26.2703 65.0207 25.5145 65.575 25.2793C66.3645 24.9266 76.8793 24.9266 77.6856 25.2625ZM56.4375 29.6297C57.0926 29.9824 57.2941 30.5703 57.2941 32.166C57.2941 33.493 57.2605 33.6273 56.807 34.1312C56.3871 34.6016 56.2023 34.6855 55.5473 34.6855C54.9426 34.6855 54.6906 34.5848 54.3211 34.2152C53.8676 33.7785 53.8508 33.6945 53.8508 32.0652V30.3687L54.4051 29.8816C55.0098 29.3441 55.6984 29.2602 56.4375 29.6297ZM77.9543 32.5355C78.9285 33.1066 79.0965 34.484 78.307 35.2902L77.8199 35.7773H71.8402C67.809 35.7773 65.743 35.7102 65.4574 35.5926C64.1809 35.0047 64.332 32.8715 65.6926 32.3676C65.827 32.3172 68.548 32.2668 71.7059 32.2668C76.8121 32.25 77.5344 32.2836 77.9543 32.5355ZM56.3367 39.9934C57.1262 40.3965 57.2941 40.7996 57.2941 42.4457C57.2941 43.907 57.2605 44.0414 56.8406 44.5117C56.2191 45.2004 55.3961 45.318 54.6402 44.8477C53.9348 44.4109 53.7668 43.9406 53.7668 42.2945C53.7668 40.9844 53.7836 40.934 54.3379 40.3797C54.9426 39.775 55.6313 39.6406 56.3367 39.9934ZM77.6856 41.3875C78.4078 41.6898 78.7941 42.2441 78.7941 43C78.7941 43.7559 78.4078 44.3102 77.6856 44.6125C76.8625 44.9652 66.4484 44.9484 65.6086 44.6125C65.0207 44.3605 64.5168 43.6215 64.5168 43C64.5168 42.3953 65.0207 41.6395 65.575 41.4043C66.3645 41.0516 76.8793 41.0516 77.6856 41.3875Z" fill="#63316D" stroke="black" stroke-width="2" mask="url(#path-3-inside-2_7133_972)"/>
</svg>
